<svg height="50" width="220" id="_Слой_1" data-name="Слой 1" xmlns="http://www.w3.org/2000/svg" viewBox="0 0 913.56 184.04">
  <defs>
    <style>
      .cls-1 {
        fill: #fff;
      }

      .cls-2 {
        fill: #97cbe9;
      }

      .cls-3 {
        fill: #2ca5d5;
      }

      .cls-4 {
        fill: #84b626;
      }

      .cls-5 {
        fill: #4aa436;
      }
    </style>
  </defs>
  <circle class="cls-1" cx="92.02" cy="92.02" r="92.02"/>
  <g>
    <path class="cls-4" d="m122.91,57.72c.72.05,1.43.09,2.13.09h0c2.99,0,5.95-.42,8.83-1.23,2.86-.82,5.59-2.01,8.12-3.58,2.57-1.59,4.89-3.51,6.92-5.73.93-1.03,1.8-2.11,2.59-3.25-7.93-8.69-19.69-12.11-30.59-9.74.28.58.55,1.16.8,1.75.83,1.94,1.46,3.97,1.88,6.04.43,2.13.64,4.31.64,6.5s-.21,4.37-.64,6.49c-.2.89-.42,1.79-.68,2.66Z"/>
    <path class="cls-4" d="m110.03,75.28c1.7-1.14,3.32-2.47,4.77-3.92,1.46-1.47,2.78-3.08,3.93-4.78,1.16-1.72,2.17-3.56,2.98-5.47.83-1.93,1.44-3.98,1.88-6.04.43-2.12.64-4.31.64-6.49s-.21-4.37-.64-6.5c-.44-2.06-1.05-4.1-1.88-6.04-.25-.6-.52-1.17-.8-1.75-4.7,1.01-9.24,3.11-13.27,6.31-12.07,9.62-15.39,26.17-8.79,39.48,1.95-.42,3.87-1.03,5.71-1.82,1.91-.81,3.75-1.82,5.47-2.98Z"/>
    <path class="cls-4" d="m100.89,46.88c.15.16.26.31.4.46.54-.76,1.09-1.49,1.68-2.2,1.38-1.65,2.96-3.19,4.66-4.55,2.91-2.32,6.15-4.11,9.62-5.3,1.2-.42,2.41-.75,3.64-1.01-4.97-10.02-14.99-17.07-26.73-17.86-.12.44-.24.87-.36,1.31-.52,2.04-.83,4.16-.94,6.26-.1,2.07,0,4.16.32,6.21.29,2.05.78,4.07,1.46,6.01.69,1.95,1.57,3.85,2.6,5.61,1.05,1.8,2.29,3.5,3.65,5.06Z"/>
    <path class="cls-4" d="m91.15,23.99c-.1-2.11-.41-4.22-.94-6.26-.11-.44-.22-.87-.35-1.31-11.75.78-21.74,7.84-26.73,17.86,1.24.28,2.47.59,3.65,1.01,3.47,1.18,6.7,2.97,9.62,5.3,1.7,1.36,3.27,2.9,4.65,4.55.6.71,1.15,1.44,1.68,2.2.14-.15.27-.3.41-.46,1.37-1.55,2.59-3.26,3.64-5.05,1.04-1.77,1.91-3.66,2.59-5.61.68-1.94,1.16-3.96,1.48-6.01.3-2.05.41-4.15.3-6.22Z"/>
    <path class="cls-4" d="m42.04,53c2.54,1.56,5.26,2.75,8.13,3.58,2.87.82,5.84,1.23,8.83,1.23h0c2.35,0,4.73-.28,7.04-.79,2.37-.54,4.69-1.36,6.91-2.41,1.96-.96,3.82-2.1,5.56-3.42,1.51-1.13,2.94-2.44,4.23-3.85-1.73-2.49-3.86-4.76-6.34-6.75-13.35-10.65-32.52-9-43.87,3.43.79,1.14,1.68,2.23,2.6,3.25,2.02,2.21,4.35,4.14,6.91,5.73Z"/>
    <path class="cls-4" d="m88.43,68.34c.15-2.05.12-4.14-.11-6.19-.23-2.04-.66-4.08-1.28-6.05-.62-1.98-1.44-3.91-2.42-5.74-.57-1.04-1.2-2.06-1.88-3.03-1.29,1.41-2.72,2.72-4.23,3.85-1.72,1.32-3.59,2.47-5.56,3.42-2.22,1.06-4.55,1.87-6.91,2.41-1.63.36-3.27.6-4.92.7,3.31,11.2,12.55,19.85,24.07,22.34.89-1.8,1.62-3.68,2.14-5.59.57-1.99.93-4.04,1.1-6.12Z"/>
    <path class="cls-2" d="m74.62,87.02c-.97-1.51-2.07-2.95-3.27-4.27s-2.51-2.54-3.91-3.63c-1.38-1.11-2.89-2.1-4.43-2.95-1.56-.85-3.19-1.59-4.86-2.18-1.7-.59-3.43-1.04-5.19-1.35-1.12-.2-2.25-.33-3.37-.41.3,1.9.43,3.81.38,5.71-.05,2.16-.33,4.34-.81,6.48-.82,3.65-2.26,7.09-4.26,10.21-.22.34-.45.68-.68,1,10.82,4.38,23.33,2.55,32.46-4.9-.61-1.27-1.29-2.51-2.06-3.71Z"/>
    <path class="cls-2" d="m47.81,65.64c-.76-1.91-1.69-3.78-2.77-5.52-1.11-1.74-2.38-3.39-3.78-4.9-1.42-1.51-2.99-2.9-4.68-4.1-1.71-1.24-3.55-2.31-5.47-3.17-.41-.2-.85-.38-1.26-.55-6.74,9.66-7.44,21.91-2.72,32.06.5-.43,1.01-.82,1.52-1.2,1.72-1.23,3.57-2.3,5.49-3.17,1.98-.89,4.06-1.59,6.18-2.09,2.37-.54,4.79-.8,7.2-.8.68,0,1.38.02,2.07.06-.03-.21-.07-.41-.11-.6-.36-2.06-.92-4.09-1.67-6.02Z"/>
    <path class="cls-2" d="m17.78,109.49c1.81,0,3.64-.15,5.43-.46,1.77-.3,3.51-.76,5.19-1.36,1.68-.59,3.31-1.31,4.86-2.17,1.55-.85,3.04-1.84,4.44-2.93,1.4-1.1,2.71-2.33,3.91-3.64,1.2-1.33,2.31-2.77,3.28-4.28,2-3.12,3.44-6.57,4.26-10.21.48-2.14.76-4.31.81-6.48.05-1.9-.08-3.82-.38-5.71-3.03-.19-6.16.04-9.26.75-16.63,3.8-27.28,19.82-24.66,36.42.7.04,1.41.07,2.12.07h0Z"/>
    <path class="cls-4" d="m40.01,133.8c.11-2.1.41-4.21.93-6.25.54-2.11,1.27-4.18,2.24-6.14,1.36-2.82,3.1-5.41,5.19-7.7,0-.02,0-.02.02-.02-.72-.41-1.44-.78-2.18-1.13-2.15-1.01-4.41-1.78-6.73-2.3-2.31-.5-4.69-.77-7.05-.77-1.76,0-3.54.15-5.28.43-1.75.3-3.49.74-5.17,1.3-1.86.65-3.65,1.46-5.37,2.44,3.37,11.26,12.49,19.48,23.36,22.09,0-.64,0-1.28.04-1.95Z"/>
    <path class="cls-4" d="m71,126.45c1.39-1.51,2.67-3.15,3.77-4.9,1.11-1.76,2.03-3.61,2.77-5.52.74-1.95,1.32-3.96,1.69-5.99.34-1.97.5-3.99.47-5.98-11.44-2.74-23.49,1.02-31.32,9.64,1.38.79,2.71,1.69,3.97,2.67,1.94,1.53,3.73,3.3,5.29,5.25,1.37,1.71,2.56,3.56,3.53,5.49.88,1.73,1.59,3.51,2.16,5.35,1.03-.56,2.03-1.21,2.98-1.9,1.69-1.21,3.25-2.59,4.69-4.11Z"/>
    <path class="cls-4" d="m60.78,157.1c.99-1.82,1.8-3.74,2.43-5.74.6-1.96,1.03-4,1.26-6.05.24-2.06.27-4.13.1-6.18-.15-2.06-.53-4.13-1.07-6.14-.58-2.03-1.35-4.01-2.32-5.9-.97-1.93-2.16-3.78-3.53-5.49-1.56-1.95-3.34-3.72-5.29-5.25-1.26-.98-2.59-1.89-3.97-2.67-2.07,2.24-3.83,4.84-5.21,7.72-7.41,15.37-1.52,33.7,13.1,42.01.32-.36.63-.71.94-1.09,1.34-1.6,2.54-3.35,3.56-5.22Z"/>
    <path class="cls-2" d="m87.99,157.09c-2.09-2.3-3.83-4.9-5.19-7.71-.95-1.97-1.7-4.04-2.22-6.13-.24-.91-.42-1.83-.57-2.75-.19.06-.36.13-.54.22-1.9.8-3.74,1.79-5.47,2.95-1.72,1.16-3.31,2.48-4.78,3.93-1.44,1.47-2.78,3.08-3.93,4.78-1.16,1.72-2.17,3.58-2.97,5.48-.82,1.94-1.46,3.96-1.88,6.03-.09.46-.17.94-.24,1.4,10.91,4.38,22.99,2.37,31.81-4.49-1.45-1.12-2.78-2.36-4.02-3.71Z"/>
    <path class="cls-2" d="m104.08,130.76c-.29-2.04-.78-4.06-1.47-6-.68-1.95-1.55-3.85-2.59-5.61-1.05-1.79-2.26-3.49-3.64-5.05-1.32-1.5-2.78-2.88-4.36-4.1-9.28,7.22-13.84,19-12,30.49,1.77-.71,3.63-1.27,5.51-1.66,2.13-.42,4.32-.65,6.49-.65s4.38.23,6.5.65c1.86.39,3.73.95,5.52,1.66.18-1.16.3-2.32.37-3.51.08-2.08-.03-4.16-.33-6.22Z"/>
    <path class="cls-2" d="m121.7,157.85c-.8-1.9-1.81-3.76-2.98-5.48-1.15-1.7-2.47-3.31-3.93-4.78-1.45-1.45-3.07-2.77-4.77-3.93-1.72-1.16-3.56-2.15-5.47-2.95-1.94-.83-3.97-1.45-6.04-1.89-2.12-.42-4.31-.65-6.5-.65s-4.36.23-6.49.65c-1.88.39-3.73.96-5.51,1.67.47,3,1.4,5.99,2.79,8.88,7.4,15.38,25.43,22.19,41.03,15.91-.07-.46-.15-.94-.25-1.4-.44-2.07-1.05-4.09-1.88-6.03Z"/>
    <path class="cls-4" d="m128.75,107.96c-2.55-1.55-5.26-2.76-8.13-3.56-2.86-.82-5.83-1.24-8.81-1.24-2.37,0-4.74.28-7.04.78-.15.04-.29.08-.44.11-.14,11.77,6.22,22.7,16.37,28.4.54-1.84,1.27-3.63,2.16-5.35.98-1.93,2.17-3.78,3.52-5.49,1.58-1.95,3.34-3.72,5.3-5.26,1.25-.97,2.59-1.87,3.98-2.66-2.03-2.22-4.34-4.15-6.91-5.73Z"/>
    <path class="cls-4" d="m136.02,156.7c1.36-1.55,2.58-3.25,3.64-5.05,1.03-1.77,1.9-3.67,2.59-5.61.68-1.95,1.16-3.96,1.47-6,.2-1.41.33-2.84.33-4.28-.69.15-1.37.29-2.05.42-1.79.3-3.62.46-5.42.46h-.02c-2.4,0-4.83-.26-7.19-.82-2.14-.48-4.22-1.19-6.19-2.07-.84-.38-1.68-.8-2.5-1.28-3.18,10.67-.66,22.49,7.05,30.96,1.26-.73,2.49-1.53,3.64-2.4,1.69-1.29,3.24-2.75,4.65-4.33Z"/>
    <path class="cls-4" d="m135.65,113.69s0,0,.02.02c2.08,2.29,3.83,4.88,5.19,7.7.95,1.97,1.69,4.04,2.22,6.14.51,2.04.84,4.15.93,6.25.04.66.06,1.3.04,1.94,1.06-.26,2.12-.57,3.15-.92,1.66-.6,3.31-1.33,4.86-2.18,1.55-.86,3.04-1.85,4.43-2.95,1.39-1.09,2.72-2.32,3.92-3.63,1.2-1.33,2.3-2.77,3.26-4.28,1.63-2.53,2.87-5.27,3.73-8.13-9.96-5.65-22.06-5.46-31.75.04Z"/>
    <path class="cls-2" d="m156.91,79.45c-.27.56-.56,1.14-.88,1.7-1,1.86-2.19,3.63-3.55,5.24-1.38,1.67-2.96,3.2-4.68,4.56-2.44,1.95-5.12,3.52-8,4.68.81,1.15,1.68,2.26,2.63,3.28,1.2,1.31,2.51,2.54,3.9,3.64,1.39,1.09,2.88,2.08,4.43,2.93,1.56.85,3.2,1.59,4.86,2.17,1.69.6,3.42,1.05,5.19,1.35,1.8.33,3.63.47,5.43.47h0c.71,0,1.41-.03,2.11-.08,1.86-11.58-2.79-22.89-11.44-29.94Z"/>
    <path class="cls-2" d="m147.45,51.11c-1.68,1.2-3.25,2.59-4.67,4.1s-2.68,3.16-3.77,4.9c-1.11,1.74-2.04,3.61-2.79,5.52-.76,1.93-1.31,3.96-1.68,6-.37,2.07-.52,4.2-.49,6.31.05,2.16.33,4.34.81,6.48.83,3.65,2.26,7.09,4.27,10.21.22.34.43.66.66,1,2.82-1.14,5.52-2.69,8-4.68,13.36-10.65,16-29.73,6.39-43.56-.43.17-.85.35-1.27.55-1.91.86-3.75,1.93-5.46,3.17Z"/>
    <path class="cls-2" d="m131.09,72.65c-1.76.31-3.51.76-5.2,1.35-1.68.59-3.31,1.33-4.86,2.18s-3.06,1.84-4.45,2.95c-1.39,1.09-2.7,2.31-3.9,3.63-1.22,1.31-2.31,2.76-3.29,4.27-.77,1.2-1.45,2.45-2.03,3.72,9.12,7.45,21.63,9.28,32.43,4.9-.23-.34-.44-.66-.66-1-2.01-3.12-3.44-6.57-4.27-10.21-.49-2.14-.76-4.31-.81-6.48-.03-1.9.09-3.82.38-5.71-1.1.07-2.23.2-3.34.4Z"/>
    <path class="cls-3" d="m152.48,86.39c1.36-1.62,2.55-3.38,3.55-5.24.32-.55.61-1.14.88-1.7-3.73-3.06-8.19-5.31-13.2-6.46-3.11-.71-6.21-.94-9.25-.75-.31,1.9-.43,3.81-.4,5.71.05,2.16.33,4.34.81,6.48.83,3.65,2.26,7.09,4.27,10.21.22.34.46.66.66,1,2.88-1.16,5.56-2.73,8-4.68,1.72-1.37,3.29-2.9,4.68-4.57Z"/>
    <path class="cls-5" d="m144.02,133.8c-.09-2.1-.41-4.21-.93-6.25-.53-2.11-1.27-4.18-2.22-6.14-1.37-2.81-3.11-5.41-5.19-7.7l-.02-.02c-3.47,1.98-6.63,4.61-9.28,7.92-2.64,3.34-4.52,7.01-5.68,10.84.81.46,1.66.9,2.5,1.28,1.97.89,4.05,1.59,6.19,2.07,2.36.56,4.79.82,7.19.82h.02c1.8,0,3.63-.17,5.42-.46.68-.12,1.36-.26,2.05-.42,0-.63-.01-1.27-.05-1.94Z"/>
    <path class="cls-5" d="m43.17,121.41c-.95,1.97-1.7,4.04-2.24,6.14-.52,2.04-.82,4.15-.93,6.25-.03.66-.04,1.3-.03,1.94,4.68,1.13,9.68,1.23,14.67.06,3.12-.7,6.02-1.84,8.68-3.34-.56-1.85-1.28-3.63-2.16-5.36-.97-1.93-2.16-3.78-3.53-5.49-1.56-1.95-3.34-3.72-5.29-5.25-1.26-.98-2.59-1.89-3.97-2.67t-.02.02c-2.07,2.29-3.82,4.89-5.18,7.7Z"/>
    <path class="cls-5" d="m76.4,40.58c-2.92-2.32-6.15-4.11-9.62-5.3-1.19-.42-2.42-.74-3.65-1.01-2.13,4.32-3.34,9.15-3.34,14.29,0,3.19.46,6.25,1.33,9.15,1.65-.1,3.29-.34,4.92-.7,2.37-.54,4.69-1.36,6.91-2.41,1.96-.96,3.82-2.1,5.56-3.42,1.51-1.13,2.94-2.44,4.23-3.85-.53-.76-1.08-1.49-1.68-2.2-1.39-1.65-2.96-3.19-4.66-4.55Z"/>
    <path class="cls-3" d="m82.8,149.37c1.36,2.82,3.1,5.42,5.21,7.72,1.22,1.35,2.55,2.6,4,3.71,3.8-2.94,7-6.79,9.22-11.42,1.39-2.89,2.31-5.89,2.8-8.88-1.78-.71-3.65-1.28-5.52-1.67-2.12-.42-4.31-.65-6.5-.65s-4.36.23-6.49.65c-1.88.39-3.73.96-5.51,1.66.15.93.33,1.86.57,2.77.52,2.07,1.28,4.15,2.22,6.11Z"/>
    <path class="cls-3" d="m49.15,84.43c.48-2.14.76-4.31.81-6.48.05-1.9-.08-3.82-.38-5.71-.69-.04-1.38-.06-2.07-.06-2.41,0-4.82.26-7.2.8-2.12.49-4.21,1.19-6.18,2.09-1.92.87-3.77,1.94-5.49,3.17-.51.39-1.02.78-1.52,1.2,2.03,4.34,5.08,8.32,9.09,11.5,2.49,1.99,5.18,3.54,8,4.68.23-.32.46-.66.68-1,2-3.1,3.44-6.55,4.26-10.19Z"/>
    <path class="cls-5" d="m107.63,40.58c-1.7,1.36-3.28,2.9-4.66,4.55-.59.71-1.14,1.44-1.68,2.2,1.3,1.41,2.72,2.72,4.25,3.85,1.72,1.32,3.59,2.46,5.56,3.42,2.2,1.06,4.53,1.87,6.91,2.41,1.61.36,3.26.6,4.9.7.86-2.91,1.32-5.97,1.32-9.15,0-5.14-1.2-9.97-3.33-14.29-1.24.28-2.45.59-3.64,1.01-3.48,1.19-6.72,2.98-9.63,5.3Z"/>
  </g>
  <g>
    <g>
      <path class="cls-5" d="m629.79,95.09c-.95,0-1.8-.64-2.04-1.57-.51-1.95-1.03-5.82-1.04-7.82-.05-7.06,2.8-14.02,7.83-19.09,5.33-5.37,12.57-8.21,20.93-8.21.87,0,1.76.03,2.65.09,1.74.13,10.64.79,15.52,1.34.07,0,.19,0,.31,0,.28,0,.47-.04.58-.07,0-.11-.01-.31-.09-.62-.22-.37-2.45-3.9-8.28-3.9h-28.89c-2.46,0-4.54-2.09-4.54-4.56v-3.26c0-2.92,2.32-4.66,4.57-4.66h25.99c8.61,0,15.44,1.64,20.33,4.87,2.59,1.71,4.28,3.71,4.98,5.11,1.48,1.96,3.03,7.84.84,12.63-1.42,3.12-4.91,6.83-13.44,6.83-2.34,0-4.98-.28-7.86-.83-3.5-.68-6.85-1.02-9.94-1.02-20.35,0-26.11,14.26-26.3,22.68-.02,1.05-.82,1.93-1.87,2.05-.08,0-.16,0-.24,0Z"/>
      <path class="cls-1" d="m663.33,44.88c19.68,0,23.55,9.06,23.53,9.06h0c1.63,1.88,5.37,16.14-10.86,16.14-2.13,0-4.6-.25-7.46-.8-3.76-.73-7.2-1.06-10.34-1.06-20.47,0-28.17,14.09-28.42,24.75-.45-1.72-.96-5.44-.97-7.29-.09-12.16,9.31-25.18,26.65-25.17.82,0,1.65.03,2.5.09,3.16.23,11.07.84,15.43,1.33.16.02.35.03.55.03,1.38,0,3.32-.54,2.5-3.47-.22-.8-3.23-5.34-10.29-5.34h-28.89c-1.35,0-2.42-1.19-2.42-2.45v-3.26c0-1.7,1.34-2.55,2.45-2.55h25.99s.03-.01.05-.01m0-4.22h-26.02c-3.28,0-6.68,2.54-6.68,6.78v3.26c0,3.68,2.98,6.68,6.65,6.68h9.34c-5.23,1.36-9.84,3.97-13.58,7.74-5.42,5.46-8.5,12.97-8.44,20.6.01,2.16.55,6.22,1.11,8.34.49,1.87,2.19,3.15,4.08,3.15.16,0,.33-.01.5-.03,2.09-.25,3.68-2,3.73-4.1.18-7.66,5.47-20.62,24.19-20.62,2.96,0,6.17.33,9.54.98,3.01.58,5.79.87,8.26.87,9.66,0,13.69-4.39,15.37-8.06,2.49-5.46.9-11.79-.87-14.48-.06-.11-.11-.22-.18-.33-1.47-2.53-7.73-10.78-27-10.78h0Z"/>
    </g>
    <g>
      <path class="cls-5" d="m657.69,114.95c-7.89,0-15.34-2.05-22.15-6.08-.94-.55-1.3-1.73-.84-2.71.36-.76,1.12-1.22,1.92-1.22.23,0,.47.04.7.12,4.4,1.56,8.97,2.35,13.58,2.35,19.8,0,40.28-15.55,40.28-41.58,0-1.17.95-2.11,2.11-2.11s2.11.95,2.11,2.11v43.36c0,2.76-1.96,4.76-4.66,4.76h-7.15c-2.38,0-4.33-1.84-4.54-4.19-4.59,2.43-12.26,5.19-21.36,5.19Z"/>
      <path class="cls-1" d="m693.29,65.83v43.36c0,1.52-.96,2.65-2.54,2.65h-7.15c-1.31,0-2.44-1.11-2.44-2.49v-3.35c-3.52,2.65-12.53,6.83-23.47,6.83-6.58,0-13.86-1.51-21.07-5.78,4.73,1.68,9.55,2.47,14.28,2.47,22.18,0,42.39-17.48,42.39-43.69m0-4.23c-2.34,0-4.23,1.89-4.23,4.23,0,24.7-19.4,39.47-38.16,39.47-4.36,0-8.7-.75-12.87-2.23-.46-.16-.94-.24-1.41-.24-1.6,0-3.12.91-3.83,2.44-.92,1.97-.2,4.32,1.67,5.43,7.14,4.23,14.95,6.38,23.23,6.38s15.22-2.09,20.15-4.33c1.16,1.99,3.31,3.33,5.76,3.33h7.15c3.86,0,6.77-2.96,6.77-6.88v-43.37c0-2.34-1.89-4.23-4.23-4.23h0Z"/>
    </g>
    <g>
      <path class="cls-5" d="m595.71,113.1c-10.6,0-19.85-2.61-26.76-7.54-12.32-8.82-13.5-21.81-13.44-26.98v-.18c0-19.65,16.06-35.63,35.81-35.63s34.68,14.81,35.75,33.72c.07,1.46-.58,4.38-2.63,6.52-1.7,1.77-4.04,2.71-6.77,2.71h-17.57c-9.87,0-21.36-.01-27.43-.03.01,0-.07.03-.12.1-.08.11-.09.34-.03.63,1.81,9.07,12.08,14.28,28.17,14.28,21.9,0,49.34-9.65,66.73-23.46.39-.31.85-.46,1.31-.46.61,0,1.21.26,1.63.76.73.89.63,2.2-.24,2.95-23.92,20.72-51.05,32.61-74.41,32.61Zm-4.38-55.62c-8.6,0-16.27,5.17-19.53,13.18,0,.04.03.2.12.31.05.05.11.11.29.11h38.21c.17,0,.31-.06.38-.16.07-.1.07-.24,0-.4-3.25-7.92-10.9-13.04-19.47-13.04Z"/>
      <path class="cls-1" d="m591.33,44.88c18.01,0,32.64,14.06,33.65,31.72.06,1.41-1.14,6.99-7.29,6.99h-17.4c-9.9,0-21.5-.01-27.59-.03-1.13,0-2.67,1.05-2.24,3.25,2.21,11.05,14.42,15.98,30.25,15.98,21.31,0,49.18-8.94,68.04-23.92-24.8,21.47-51.78,32.09-73.03,32.09-10.08,0-18.87-2.39-25.53-7.14-13.22-9.46-12.55-23.99-12.55-25.44,0-18.49,15.09-33.5,33.69-33.5m-19.12,28.32h38.21c1.84,0,3.05-1.74,2.33-3.49-3.45-8.4-11.72-14.34-21.43-14.34s-18.04,6.02-21.49,14.5c-.53,1.27.37,3.33,2.38,3.33m19.12-32.54c-20.91,0-37.92,16.93-37.92,37.75v.15c-.07,5.51,1.19,19.33,14.32,28.72,7.27,5.19,16.94,7.93,27.99,7.93,23.86,0,51.49-12.07,75.8-33.12,1.74-1.51,1.96-4.12.49-5.9-.84-1.01-2.04-1.53-3.26-1.53-.92,0-1.85.3-2.63.92-17.05,13.54-43.95,23-65.41,23-6.7,0-21.99-1.09-25.59-10.77,5.33.01,13.78.02,25.17.02h17.4c3.33,0,6.2-1.16,8.3-3.36,2.69-2.82,3.29-6.38,3.21-8.05v-.05c-1.15-20.03-17.78-35.71-37.87-35.71h0Zm-16.34,28.31c3.39-5.78,9.54-9.37,16.34-9.37s13,3.61,16.36,9.37h-32.7Z"/>
    </g>
    <g>
      <path class="cls-5" d="m527.31,113.77c-2.84,0-4.59-2.38-4.59-4.58v-21.46c-.01-.07-.01-.13-.01-.2-.02-5.31-.02-9.63-.02-9.63,0-11.54-9.44-20.92-21.05-20.92s-21.05,9.39-21.05,20.92c0,.01-.01,4.26-.03,9.63-.02,7.99-.02,20.14-.02,21.44,0,3.11-2.33,4.8-4.53,4.8h-5.58c-2.84,0-4.59-2.38-4.59-4.58v-31.29c0-19.64,16.06-35.62,35.8-35.62s35.8,15.98,35.8,35.62v9.62c-.02,8-.05,20.15-.05,21.45,0,3.11-2.31,4.8-4.49,4.8,0,0-5.59,0-5.59,0Z"/>
      <path class="cls-1" d="m501.63,44.4c18.59,0,33.69,15.01,33.69,33.51v9.62c-.02,8-.05,20.15-.05,21.45,0,1.87-1.33,2.68-2.38,2.68h-5.58c-1.62,0-2.48-1.36-2.48-2.47v-21.66h-.01c-.02-5.31-.02-9.62-.02-9.62,0-12.71-10.38-23.03-23.17-23.03s-23.17,10.32-23.17,23.03c0,0-.01,4.26-.03,9.62-.02,8-.02,20.15-.02,21.45,0,1.87-1.34,2.68-2.41,2.68h-5.57c-1.6,0-2.48-1.36-2.48-2.47v-31.28c0-18.5,15.1-33.51,33.68-33.51m0-4.23c-20.91,0-37.91,16.93-37.91,37.73v31.28c0,3.22,2.56,6.7,6.71,6.7h5.57c3.26,0,6.64-2.58,6.64-6.91,0-1.3,0-13.45.02-21.44.02-5.36.03-9.62.03-9.62,0-10.38,8.5-18.82,18.94-18.82s18.94,8.44,18.94,18.81c0,.01.01,4.32.02,9.63,0,.1,0,.19.01.28v21.37c0,3.22,2.56,6.7,6.71,6.7h5.58c3.25,0,6.61-2.58,6.61-6.91,0-1.3.03-13.45.05-21.44v-9.63c0-20.8-17.01-37.73-37.92-37.73h0Z"/>
    </g>
    <g>
      <path class="cls-5" d="m548.2,113.92c-.53-.01-.95-.01-1.36-.01h-1.09c-.52.01-1.11.02-1.92.02-3.05,0-5.26-2.25-5.26-5.36V23.57c0-3.11,2.21-5.37,5.26-5.37.81,0,3.01.01,3.01.01.41,0,.83,0,1.36-.01,2.11,0,5.05,1.62,5.08,5.23,0,1.77.02,16.48.04,25.79v2.11c-.03,12.71-.04,55.59-.04,57.34-.02,3.63-2.96,5.25-5.04,5.25h-.04Z"/>
      <path class="cls-1" d="m548.24,20.32c.92,0,2.91.73,2.93,3.13,0,1.76.02,16.47.04,25.78v2.11c-.03,12.7-.04,55.59-.04,57.34-.02,2.4-2.01,3.14-2.93,3.14-.55-.01-.98-.01-1.4-.01-.83,0-1.59.01-3.01.01-2.16,0-3.14-1.59-3.14-3.24V23.58c0-1.66.98-3.25,3.14-3.25,1.42,0,2.17.01,3.01.01.41-.01.85-.02,1.4-.02m0-4.23h-.07c-.52.01-.93.01-1.33.01h-1.07c-.52,0-1.12-.01-1.93-.01-4.2,0-7.37,3.22-7.37,7.48v85c0,4.26,3.17,7.47,7.37,7.47.82,0,1.42,0,1.94-.01.38,0,.72-.01,1.07-.01.39,0,.8,0,1.32.01h.08c3.49,0,7.13-2.74,7.16-7.34,0-1.8.02-44.79.04-57.36v-2.12c-.03-9.3-.04-24.12-.04-25.78-.05-4.6-3.68-7.34-7.17-7.34h0Z"/>
    </g>
    <g>
      <path class="cls-5" d="m306.86,113.87c-.54-.01-.96-.01-1.37-.01,0,0-2.19.01-3,.01-3.04,0-5.24-2.25-5.24-5.36v-33.29c0-12.32,5.24-23.53,14.37-30.74.82-.65,1.86-1.02,2.92-1.02,2.61,0,4.57,2.01,4.57,4.68v4.93c0,3.76-.66,5.8-2.62,8.09-2.89,3.35-4.48,8.34-4.48,14.07,0,0-.06,30.83-.07,33.41,0,3.61-2.95,5.23-5.04,5.23h-.04Z"/>
      <path class="cls-1" d="m314.53,45.57c1.25,0,2.46.91,2.46,2.56v4.93c0,3.25-.48,4.8-2.12,6.71-3.42,3.96-4.99,9.59-4.99,15.44,0,0-.06,30.82-.07,33.41,0,2.4-1.99,3.13-2.93,3.13-.55-.01-.99-.01-1.4-.01-.83,0-1.58.01-3,.01-2.15,0-3.13-1.59-3.13-3.25v-33.28c0-12.06,5.18-22.46,13.57-29.09.48-.37,1.05-.56,1.61-.56m0-4.22c-1.54,0-3.04.53-4.24,1.49-9.63,7.61-15.16,19.42-15.16,32.39v33.28c0,4.26,3.16,7.48,7.35,7.48.82,0,1.42,0,1.94-.01h1.07c.4,0,.81,0,1.33.01h.07c3.52,0,7.16-2.75,7.16-7.35.01-2.54.07-33.09.07-33.4,0-5.23,1.41-9.73,3.96-12.69,2.63-3.06,3.14-5.79,3.14-9.48v-4.93c0-3.81-2.94-6.79-6.69-6.79h0Z"/>
    </g>
    <g>
      <path class="cls-5" d="m248.27,114c-26.32,0-47.73-21.64-47.73-48.25s21.41-48.24,47.73-48.24c19.55,0,36.83,11.66,44.04,29.72.8,1.97.72,3.89-.22,5.38-.8,1.28-2.18,2.1-3.69,2.2-.35.03-.87.05-1.57.05-.53,0-1.13,0-1.78-.02-.73,0-1.52-.03-2.34-.03-3.8,0-6.49-2.48-7.73-4.8-5.17-9.6-15.4-15.57-26.72-15.57-17.06,0-30.95,14.05-30.95,31.31s13.88,31.31,30.95,31.31c11.97,0,22.83-7.09,27.9-17.93h-12.35c-2.08,0-5.01-1.65-5.01-5.31v-4.26c0-2.89,2.28-5.15,5.19-5.15h21.91c3.79,0,5.99,1.73,7.18,3.18,1.72,2.1,2.48,5.01,1.96,7.61-4.4,22.48-24.07,38.8-46.77,38.8Z"/>
      <path class="cls-1" d="m248.27,19.63c18.97,0,35.4,11.65,42.08,28.39,1.15,2.86-.43,4.58-2.08,4.68-.38.04-.87.05-1.43.05-1.13,0-2.57-.05-4.11-.05-3.19,0-5.16-2.36-5.87-3.69-5.44-10.12-16.37-16.69-28.58-16.69-18.26,0-33.06,14.96-33.06,33.43s14.8,33.42,33.06,33.42c14.32,0,26.47-9.24,31.05-22.16h-15.5c-.95,0-2.9-.78-2.9-3.19v-4.26c0-1.66,1.29-3.04,3.07-3.04h22.01c5.62,0,7.61,5.04,6.98,8.26-4.15,21.15-22.58,37.1-44.7,37.1-25.2,0-45.61-20.65-45.61-46.13-.02-25.47,20.39-46.12,45.59-46.12m0-4.23c-27.48,0-49.84,22.59-49.84,50.35s22.36,50.36,49.84,50.36c23.71,0,44.25-17.04,48.85-40.51.63-3.19-.29-6.78-2.41-9.35-2.09-2.55-5.19-3.95-8.72-3.95h-22.01c-4.09,0-7.3,3.19-7.3,7.26v4.26c0,4.58,3.7,7.42,7.13,7.42h8.8c-5.19,8.38-14.36,13.7-24.36,13.7-15.9,0-28.83-13.1-28.83-29.19s12.94-29.2,28.83-29.2c10.54,0,20.06,5.54,24.86,14.46,1.53,2.86,4.86,5.91,9.59,5.91.81,0,1.58,0,2.3.03.66,0,1.27.02,1.81.02.75,0,1.29-.02,1.77-.06,2.15-.16,4.12-1.34,5.27-3.18,1.31-2.08,1.45-4.68.39-7.3-3.62-9.07-9.83-16.81-17.96-22.38-8.25-5.65-17.94-8.65-28.01-8.65h0Z"/>
    </g>
    <g>
      <path class="cls-5" d="m356.08,113.87c-19.74,0-35.81-15.98-35.81-35.63s16.06-35.63,35.81-35.63,34.7,14.81,35.76,33.73c.07,1.45-.57,4.35-2.61,6.5-1.7,1.78-4.04,2.72-6.78,2.72h-12.39c-11.15,0-26.69,0-33.17-.03-.16,0-.22.05-.27.13-.07.1-.11.28-.02.47,3.6,8.04,11.07,13.05,19.49,13.05,4.8,0,9.33-1.58,13.09-4.57.09-.07.2-.17.32-.28,1.03-.91,2.93-2.6,6.73-2.6.83,0,1.51.01,2.13.02.51.01.97.01,1.45.01.51,0,1.03-.01,1.63-.03h.14c1.61,0,3.1.96,3.9,2.52.79,1.55.68,3.36-.3,4.72-6.63,9.32-17.5,14.9-29.1,14.9Zm0-56.56c-8.6,0-16.27,5.17-19.54,13.18,0,.03.03.2.13.32.06.07.13.12.3.12h38.22c.2,0,.31-.09.36-.17.07-.11.08-.24.01-.4-3.25-7.93-10.9-13.05-19.48-13.05Z"/>
      <path class="cls-1" d="m356.08,44.72c18.01,0,32.66,14.06,33.64,31.73.07,1.4-1.13,6.99-7.28,6.99h-12.42c-11.15,0-26.66,0-33.13-.03-1.91,0-2.95,1.93-2.24,3.55,3.71,8.29,11.75,14.32,21.43,14.32,5.46,0,10.46-1.89,14.41-5.03.93-.75,2.27-2.42,5.73-2.42,1.51,0,2.51.03,3.58.03.53,0,1.08-.01,1.72-.03h.06c1.69,0,3.03,2.29,1.88,3.89-6.06,8.54-16.09,14.03-27.38,14.03-18.6,0-33.69-15-33.69-33.52,0-18.5,15.09-33.51,33.69-33.51m-19.1,28.32h38.22c1.8,0,3.04-1.75,2.33-3.49-3.47-8.42-11.74-14.35-21.45-14.35s-18.04,6.01-21.5,14.49c-.52,1.29.38,3.35,2.4,3.35m19.1-32.55c-20.91,0-37.92,16.93-37.92,37.75s17.01,37.75,37.92,37.75c12.28,0,23.8-5.91,30.83-15.81,1.43-1.98,1.61-4.63.45-6.89-1.16-2.26-3.37-3.67-5.78-3.67h-.19c-.61.02-1.1.03-1.59.03s-.93-.01-1.42-.01c-.63-.01-1.32-.02-2.16-.02-4.6,0-6.98,2.12-8.13,3.14-.09.08-.17.16-.25.22-3.36,2.67-7.43,4.09-11.75,4.09-6.7,0-12.74-3.55-16.31-9.41,7.32.02,20.14.02,30.25.02h12.43c3.33,0,6.2-1.17,8.31-3.38,2.34-2.46,3.3-5.9,3.19-8.05-1.14-20.07-17.77-35.76-37.88-35.76h0Zm-16.36,28.32c3.38-5.78,9.55-9.38,16.36-9.38s13.01,3.61,16.38,9.38h-32.74Z"/>
    </g>
    <g>
      <path class="cls-5" d="m707.55,114.27c-3.04,0-5.25-2.25-5.25-5.35v-51.35c0-.3-.03-.5-.06-.61h-3.84c-5.67,0-5.67-4.53-5.67-6.02v-3.72c0-1.89.74-5.05,5.67-5.05h4.17c.41,0,.69-.7.71-.8,1.77-7.43,6.08-14.3,12.47-19.83.82-.71,2.02-1.12,3.29-1.12,2.44,0,4.97,1.58,5.09,5.11.03,1.02.02,2.01.02,3v1.06c0,2.93-.86,5.25-2.56,6.9-1.47,1.41-2.48,3.17-3.25,5.67h2.58c2.66,0,5.35,1.78,5.35,5.17v4.61c0,2.37-2.02,5.01-4.92,5.01h-4.32s-.02.07-.02.11l-.02,51.97c0,3.61-2.95,5.23-5.04,5.23,0,0-4.4,0-4.4,0Z"/>
      <path class="cls-1" d="m719.05,22.54c1.38,0,2.9.78,2.98,3.07.04,1.34.02,2.65.02,3.99,0,1.95-.42,3.92-1.92,5.38-1.92,1.84-3.07,4.07-3.9,6.91-.23.76-.05,2.4,1.73,2.4h2.97c1.5,0,3.23.84,3.23,3.06v4.61c0,1.24-1.14,2.89-2.8,2.89h-4.35c-1.1,0-1.91.52-2.1,2.08-.01,16.89-.02,51.09-.02,52.11,0,2.4-1.98,3.12-2.93,3.12h-4.4c-2.16,0-3.14-1.59-3.14-3.23v-51.36c0-2-.9-2.72-2.18-2.72h-3.83c-2.87,0-3.56-1.29-3.56-3.91v-3.72c0-1.94.96-2.94,3.55-2.94h4.17c1.71,0,2.57-1.61,2.77-2.4,1.79-7.55,6.16-13.86,11.8-18.74.42-.36,1.14-.6,1.91-.6m0-4.23h0c-1.77,0-3.47.59-4.67,1.63-6.49,5.62-10.95,12.56-12.94,20.12h-3.04c-5.74,0-7.78,3.7-7.78,7.16v3.72c0,7.08,4.88,8.14,7.79,8.14h1.79v49.86c0,4.25,3.17,7.46,7.36,7.46h4.37c3.54,0,7.18-2.75,7.18-7.35v-9.91l.02-40.06h2.23c4.14,0,7.03-3.75,7.03-7.12v-4.61c0-3.97-2.93-7.01-6.9-7.27.44-.79.95-1.45,1.57-2.04,2.14-2.08,3.22-4.91,3.22-8.43v-1.05c0-.98.01-2-.02-3.05-.16-4.26-3.12-7.2-7.21-7.2h0Z"/>
    </g>
    <g>
      <path class="cls-5" d="m428.97,113.87c-19.74,0-35.8-15.98-35.8-35.63s16.06-35.63,35.8-35.63,34.68,14.81,35.74,33.73c.08,1.4-.53,4.3-2.57,6.46-1.7,1.81-4.06,2.76-6.82,2.76h-12.39c-11.15,0-26.68,0-33.17-.03-.15,0-.22.05-.26.12-.06.1-.1.27-.02.45,3.53,7.94,11.18,13.07,19.49,13.07,4.8,0,9.33-1.58,13.09-4.57.09-.07.2-.17.32-.28,1.02-.91,2.93-2.6,6.71-2.6.83,0,1.52.01,2.14.02.51.01.97.01,1.45.01.51,0,1.03-.01,1.64-.03h.14c1.6,0,3.09.96,3.89,2.51.8,1.55.68,3.36-.29,4.72-6.61,9.34-17.49,14.92-29.09,14.92Zm0-56.56c-8.61,0-16.28,5.17-19.55,13.18,0,.03.03.2.13.32.05.06.11.12.3.12h38.23c.21,0,.31-.09.36-.16.07-.1.07-.24,0-.4-3.25-7.94-10.89-13.06-19.47-13.06Z"/>
      <path class="cls-1" d="m428.97,44.72c17.98,0,32.64,14.06,33.63,31.73.09,1.4-1.13,6.99-7.28,6.99h-12.43c-11.15,0-26.65,0-33.13-.03-1.9,0-2.95,1.93-2.22,3.55,3.69,8.29,11.74,14.32,21.42,14.32,5.44,0,10.45-1.89,14.41-5.03.93-.75,2.26-2.42,5.72-2.42,1.51,0,2.52.03,3.6.03.54,0,1.09-.01,1.72-.03h.06c1.68,0,3.02,2.29,1.88,3.89-6.06,8.54-16.1,14.03-27.38,14.03-18.61,0-33.69-15-33.69-33.52,0-18.5,15.08-33.51,33.69-33.51m-19.11,28.32h38.22c1.82,0,3.04-1.75,2.32-3.49-3.45-8.42-11.74-14.35-21.43-14.35s-18.05,6.01-21.51,14.49c-.52,1.29.37,3.35,2.4,3.35m19.11-32.55c-20.91,0-37.91,16.93-37.91,37.75s17.01,37.75,37.91,37.75c12.28,0,23.8-5.91,30.83-15.81,1.43-1.99,1.6-4.64.44-6.9s-3.37-3.66-5.77-3.66h-.19c-.61.02-1.1.03-1.59.03s-.93-.01-1.42-.01c-.63-.01-1.33-.02-2.17-.02-4.59,0-6.97,2.12-8.12,3.14-.09.08-.17.16-.25.22-3.36,2.67-7.44,4.09-11.75,4.09-6.6,0-12.75-3.62-16.3-9.41,7.33.02,20.12.02,30.22.02h12.42c4.24,0,6.89-1.86,8.36-3.43,2.34-2.49,3.27-5.92,3.14-8.05-1.12-20.02-17.75-35.71-37.85-35.71h0Zm-16.37,28.32c3.38-5.78,9.55-9.38,16.37-9.38s13.01,3.61,16.36,9.38h-32.73Z"/>
    </g>
  </g>
  <g>
    <path class="cls-5" d="m747.53,114.64c-2.39,0-4.33-1.94-4.33-4.33v-63.6c0-2.39,1.94-4.33,4.33-4.33h159.58c2.39,0,4.33,1.94,4.33,4.33v63.61c0,2.39-1.94,4.33-4.33,4.33h-159.58Z"/>
    <path class="cls-1" d="m907.11,44.49c1.22,0,2.22.99,2.22,2.22v63.61c0,1.22-.99,2.22-2.22,2.22h-159.58c-1.22,0-2.22-.99-2.22-2.22v-63.61c0-1.22.99-2.22,2.22-2.22h159.58m0-4.23h-159.58c-3.55,0-6.45,2.89-6.45,6.45v63.61c0,3.55,2.89,6.45,6.45,6.45h159.58c3.55,0,6.45-2.89,6.45-6.45v-63.61c-.01-3.56-2.9-6.45-6.45-6.45h0Z"/>
  </g>
  <g>
    <path class="cls-1" d="m761.43,72.53c-.64,0-1.16-.18-1.54-.56-.39-.37-.58-.84-.58-1.42,0-.61.19-1.1.58-1.47s.9-.56,1.54-.56h12.76c.64,0,1.16.19,1.57.56.4.37.61.86.61,1.47,0,.57-.2,1.05-.61,1.42-.41.37-.93.56-1.57.56h-12.76Zm4.81,22.69c-.57,0-1.09-.21-1.54-.63-.46-.42-.68-.99-.68-1.7v-25.27c0-2.4.46-4.49,1.37-6.28s2.2-3.18,3.88-4.18c1.67-1,3.64-1.49,5.9-1.49.68,0,1.23.2,1.67.61s.66.91.66,1.52c0,.57-.22,1.07-.66,1.49-.44.42-1,.63-1.67.63-1.35,0-2.51.3-3.47.91-.96.61-1.71,1.46-2.23,2.56-.52,1.1-.78,2.39-.78,3.87v25.63c0,.71-.21,1.28-.63,1.7-.45.42-1.04.63-1.82.63Z"/>
    <path class="cls-1" d="m788.68,95.42c-2.53,0-4.79-.61-6.79-1.82-1.99-1.22-3.56-2.89-4.71-5.01s-1.72-4.52-1.72-7.19.62-5.11,1.85-7.22,2.9-3.78,5.01-5.01,4.48-1.85,7.12-1.85,5.05.62,7.14,1.85,3.76,2.91,4.99,5.04,1.86,4.52,1.9,7.19l-1.82.46c0,2.57-.57,4.88-1.72,6.94-1.15,2.06-2.69,3.68-4.63,4.86s-4.16,1.76-6.62,1.76Zm.76-4.15c1.82,0,3.44-.43,4.86-1.29s2.54-2.04,3.37-3.55c.83-1.5,1.24-3.18,1.24-5.04s-.41-3.59-1.24-5.09c-.83-1.5-1.95-2.68-3.37-3.55s-3.04-1.29-4.86-1.29-3.36.43-4.81,1.29-2.59,2.04-3.42,3.55c-.83,1.5-1.24,3.2-1.24,5.09s.41,3.54,1.24,5.04,1.97,2.68,3.42,3.55c1.45.86,3.05,1.29,4.81,1.29Zm11.65,4c-.68,0-1.23-.22-1.67-.66s-.66-1-.66-1.67v-8.1l.96-4.86,3.75,1.42v11.55c0,.68-.23,1.23-.68,1.67-.46.43-1.03.65-1.7.65Z"/>
    <path class="cls-1" d="m809.65,95.27c-.68,0-1.23-.22-1.67-.66s-.66-1-.66-1.67v-23.04c0-.71.22-1.27.66-1.7.44-.42,1-.63,1.67-.63.71,0,1.27.21,1.7.63.42.42.63.99.63,1.7v23.04c0,.68-.21,1.23-.63,1.67-.43.44-1,.66-1.7.66Zm17.27,0c-.68,0-1.23-.22-1.67-.66s-.66-1-.66-1.67v-14.54c0-2.23-.57-3.93-1.7-5.12-1.13-1.18-2.59-1.77-4.38-1.77-1.89,0-3.45.64-4.68,1.92s-1.85,2.92-1.85,4.91h-3.04c.03-2.16.5-4.08,1.39-5.75s2.12-2.98,3.67-3.92c1.55-.95,3.31-1.42,5.27-1.42s3.69.44,5.19,1.32,2.67,2.15,3.52,3.82c.84,1.67,1.27,3.67,1.27,6v14.54c0,.68-.21,1.23-.63,1.67-.43.45-1,.67-1.7.67Zm17.17,0c-.67,0-1.23-.22-1.67-.66s-.66-1-.66-1.67v-14.54c0-2.23-.57-3.93-1.7-5.12-1.13-1.18-2.59-1.77-4.38-1.77-1.89,0-3.44.65-4.63,1.95-1.2,1.3-1.8,2.98-1.8,5.04h-3.95c.03-2.23.52-4.19,1.47-5.88.94-1.69,2.26-3,3.95-3.95s3.6-1.42,5.72-1.42c1.96,0,3.69.44,5.19,1.32s2.68,2.15,3.52,3.82,1.27,3.67,1.27,6v14.54c0,.68-.21,1.23-.63,1.67-.43.45-1,.67-1.7.67Z"/>
    <path class="cls-1" d="m854.11,62.7c-.84,0-1.57-.3-2.18-.91s-.91-1.35-.91-2.23.31-1.61.94-2.2,1.36-.89,2.2-.89,1.53.3,2.15.89.94,1.33.94,2.2-.3,1.62-.91,2.23c-.61.61-1.35.91-2.23.91Zm.05,32.52c-.71,0-1.28-.22-1.72-.66-.44-.44-.66-1-.66-1.67v-23.05c0-.71.22-1.27.66-1.7.44-.42,1.01-.63,1.72-.63.67,0,1.23.21,1.67.63s.66.99.66,1.7v23.04c0,.68-.22,1.23-.66,1.67-.43.45-.99.67-1.67.67Zm11.08-25.79c-.01-3.87-.02-9.98-.02-10.71-.01-.99-.84-1.3-1.22-1.3-.68,0-.95,0-1.83,0s-1.31.66-1.31,1.35v35.32c0,.69.41,1.35,1.31,1.35s1.15-.01,1.83,0c.38,0,1.21-.31,1.22-1.3,0-.73.01-18.55.02-23.83h0v-.88h0Z"/>
    <path class="cls-1" d="m884.2,94.21c-.61.27-1.16.3-1.67.1-.51-.2-.91-.59-1.21-1.16l-11.5-22.59c-.3-.57-.35-1.13-.13-1.67s.63-.93,1.24-1.16c.57-.27,1.12-.31,1.64-.13.53.19.92.58,1.19,1.19l11.09,22.54c.34.61.46,1.17.35,1.7-.09.51-.43.91-1,1.18Zm-5.88,13.11c-.3,0-.66-.08-1.06-.25-1.35-.61-1.72-1.57-1.11-2.89l15.8-35.35c.61-1.28,1.57-1.65,2.89-1.11,1.39.57,1.77,1.54,1.17,2.89l-15.85,35.3c-.42.94-1.03,1.41-1.84,1.41Z"/>
  </g>
  <g>
    <g>
      <path class="cls-5" d="m210.16,165.1c-.9,0-1.7-.33-2.32-.95-.62-.62-.95-1.42-.95-2.32v-28.75c0-.93.33-1.74.96-2.35s1.4-.91,2.31-.91h10.15c2.08,0,3.95.42,5.56,1.24,1.62.83,2.92,2.01,3.85,3.5.94,1.5,1.42,3.23,1.42,5.15,0,1.59-.44,3.06-1.31,4.35-.45.67-.98,1.26-1.6,1.78,1.15.56,2.14,1.31,2.95,2.27,1.29,1.52,1.95,3.51,1.95,5.91,0,2.14-.52,4.07-1.54,5.73-1.02,1.66-2.45,2.98-4.25,3.93-1.79.94-3.85,1.42-6.14,1.42h-11.04Zm11.04-6.19c1.14,0,2.15-.2,3-.58.81-.37,1.43-.89,1.89-1.61.45-.7.68-1.61.68-2.7,0-.99-.22-1.79-.65-2.4-.45-.63-1.07-1.11-1.88-1.44-.86-.36-1.88-.54-3.03-.54h-7.78v9.27h7.77Zm-.89-15.46c1.39,0,2.48-.32,3.33-.97.76-.59,1.13-1.49,1.13-2.77s-.37-2.17-1.13-2.74c-.84-.63-1.96-.95-3.33-.95h-6.88v7.44h6.88Z"/>
      <path class="cls-1" d="m220.31,130.88c1.92,0,3.61.37,5.07,1.12s2.6,1.79,3.44,3.12,1.25,2.86,1.25,4.59c0,1.39-.38,2.64-1.13,3.76s-1.78,2-3.08,2.65c1.87.45,3.37,1.34,4.5,2.67s1.7,3.07,1.7,5.22c0,1.95-.46,3.68-1.38,5.18s-2.2,2.68-3.84,3.55c-1.64.86-3.52,1.29-5.65,1.29h-11.04c-.62,0-1.15-.21-1.57-.64-.42-.42-.64-.95-.64-1.57v-28.75c0-.65.21-1.18.64-1.59.42-.41.95-.61,1.57-.61h10.16m-7.94,13.64h7.94c1.61,0,2.94-.4,3.97-1.19,1.03-.79,1.55-2,1.55-3.61s-.52-2.81-1.55-3.59-2.36-1.17-3.97-1.17h-7.94v9.56m0,15.45h8.83c1.3,0,2.45-.23,3.44-.68s1.77-1.12,2.33-2c.57-.88.85-1.97.85-3.27,0-1.22-.28-2.22-.85-3.01s-1.34-1.39-2.33-1.8-2.14-.62-3.44-.62h-8.83v11.38m7.94-31.2h-10.15c-1.17,0-2.22.42-3.04,1.21-.84.81-1.28,1.89-1.28,3.11v28.75c0,1.18.43,2.24,1.25,3.06.82.82,1.88,1.26,3.07,1.26h11.04c2.46,0,4.69-.52,6.63-1.54,1.97-1.04,3.54-2.49,4.66-4.31,1.12-1.83,1.69-3.95,1.69-6.29,0-2.66-.74-4.87-2.2-6.59-.59-.7-1.27-1.3-2.02-1.81.27-.31.52-.63.75-.97.98-1.47,1.48-3.13,1.48-4.93,0-2.12-.53-4.04-1.58-5.71-1.04-1.65-2.47-2.95-4.26-3.88-1.76-.9-3.79-1.36-6.04-1.36h0Zm-5.83,8.31h5.83c1.15,0,2.04.24,2.7.74.19.14.71.53.71,1.9,0,1.23-.41,1.69-.72,1.93-.66.5-1.54.75-2.68.75h-5.83v-5.32h-.01Zm0,13.63h6.72c1.02,0,1.9.15,2.63.46.62.26,1.09.61,1.42,1.08.3.42.46,1.02.46,1.79,0,.88-.17,1.6-.51,2.12-.35.54-.82.94-1.44,1.22-.71.33-1.57.49-2.56.49h-6.72v-7.16h0Z"/>
    </g>
    <g>
      <path class="cls-5" d="m247.69,165.27c-2.47,0-4.69-.55-6.6-1.65-1.91-1.1-3.44-2.63-4.53-4.56-1.09-1.92-1.65-4.15-1.65-6.61s.55-4.73,1.65-6.66c1.09-1.93,2.62-3.46,4.53-4.56,1.91-1.09,4.13-1.65,6.6-1.65s4.64.55,6.55,1.65c1.91,1.09,3.44,2.63,4.53,4.56,1.09,1.92,1.65,4.16,1.65,6.66s-.55,4.69-1.62,6.61c-1.08,1.93-2.6,3.47-4.52,4.56-1.9,1.09-4.12,1.65-6.59,1.65Zm0-19.75c-1.29,0-2.39.28-3.36.87-.98.59-1.73,1.38-2.29,2.42s-.85,2.26-.85,3.64.28,2.59.85,3.61c.56,1.03,1.31,1.82,2.29,2.41.97.58,2.07.87,3.36.87s2.39-.28,3.36-.87,1.72-1.37,2.26-2.4c.55-1.03.83-2.24.83-3.62s-.28-2.6-.83-3.65c-.55-1.04-1.29-1.83-2.26-2.41-.97-.58-2.07-.87-3.36-.87Z"/>
      <path class="cls-1" d="m247.69,140.64c2.26,0,4.27.5,6.03,1.51,1.75,1,3.13,2.39,4.14,4.16,1,1.77,1.51,3.81,1.51,6.14s-.5,4.32-1.49,6.09c-.99,1.77-2.37,3.16-4.12,4.16s-3.78,1.51-6.07,1.51-4.32-.5-6.07-1.51c-1.75-1-3.14-2.39-4.14-4.16s-1.51-3.8-1.51-6.09.5-4.37,1.51-6.14c1-1.77,2.38-3.16,4.14-4.16,1.76-1,3.78-1.51,6.07-1.51m0,19.75c1.47,0,2.77-.34,3.91-1.02,1.13-.68,2.02-1.61,2.65-2.8.64-1.19.95-2.56.95-4.12s-.32-2.94-.95-4.14c-.64-1.2-1.52-2.14-2.65-2.82-1.13-.68-2.44-1.02-3.91-1.02s-2.77.34-3.91,1.02c-1.13.68-2.02,1.62-2.67,2.82-.65,1.2-.98,2.58-.98,4.14s.32,2.93.98,4.12c.65,1.19,1.54,2.12,2.67,2.8,1.14.68,2.44,1.02,3.91,1.02m0-21.86c-2.65,0-5.05.6-7.12,1.79-2.08,1.19-3.74,2.86-4.93,4.95-1.18,2.09-1.78,4.5-1.78,7.18s.6,5.05,1.78,7.14c1.19,2.09,2.85,3.76,4.93,4.95,2.07,1.19,4.47,1.79,7.12,1.79s5.05-.6,7.12-1.79c2.08-1.19,3.74-2.86,4.91-4.96,1.17-2.08,1.76-4.48,1.76-7.13s-.6-5.1-1.78-7.18c-1.19-2.1-2.85-3.76-4.93-4.95-2.07-1.19-4.45-1.79-7.08-1.79h0Zm0,19.74c-1.09,0-2.01-.23-2.82-.72-.81-.49-1.44-1.14-1.91-2-.48-.88-.72-1.9-.72-3.1s.24-2.24.72-3.13c.47-.87,1.09-1.53,1.9-2.02.8-.48,1.73-.72,2.82-.72s2.01.24,2.82.72c.8.48,1.42,1.14,1.87,2,.48.9.71,1.93.71,3.15s-.23,2.24-.7,3.12c-.46.85-1.07,1.5-1.88,1.99-.79.48-1.72.71-2.81.71h0Z"/>
    </g>
    <g>
      <path class="cls-5" d="m266.88,165.1c-.96,0-1.73-.28-2.3-.83-.58-.56-.88-1.35-.88-2.36v-18.98c0-.97.29-1.75.86-2.32.57-.57,1.35-.86,2.32-.86s1.78.28,2.34.84c.27.27.48.6.62.97.36-.28.73-.52,1.11-.74,1.57-.88,3.31-1.32,5.19-1.32s3.36.33,4.38,1c1.64,1.09,1.58,2.42,1.4,3.12-.12.58-.4,1.07-.81,1.44-.39.34-.84.56-1.34.65-.19.03-.38.05-.58.05-.28,0-.57-.04-.87-.1-.88-.18-1.74-.27-2.54-.27-.66,0-1.29.06-1.88.19-1.23.27-2.2.75-2.89,1.45-.64.65-.95,1.46-.95,2.49v12.4c0,.96-.28,1.73-.83,2.3-.55.58-1.34.88-2.35.88Z"/>
      <path class="cls-1" d="m276.14,140.56c1.7,0,2.96.28,3.8.83.83.55,1.15,1.21.95,1.97-.08.4-.25.7-.49.91s-.52.35-.83.4c-.13.02-.25.03-.39.03-.2,0-.41-.03-.63-.08-.98-.2-1.91-.3-2.78-.3-.74,0-1.44.07-2.1.21-1.44.31-2.58.89-3.42,1.74-.84.85-1.25,1.92-1.25,3.23v12.4c0,.68-.18,1.2-.53,1.57-.36.37-.89.55-1.59.55s-1.2-.18-1.57-.53-.55-.88-.55-1.59v-18.98c0-.68.18-1.2.55-1.57.37-.37.89-.55,1.57-.55s1.24.18,1.59.53.53.88.53,1.59v.89c.7-.81,1.48-1.53,2.46-2.08,1.43-.77,2.98-1.17,4.68-1.17m0-2.11c-2.06,0-3.98.49-5.7,1.46-.09.05-.18.1-.27.16-.07-.08-.13-.15-.19-.21-.77-.77-1.81-1.15-3.09-1.15-1.57,0-2.53.64-3.07,1.17-.54.54-1.17,1.5-1.17,3.07v18.98c0,1.62.65,2.59,1.2,3.12.53.51,1.49,1.12,3.04,1.12s2.58-.65,3.11-1.19c.52-.54,1.13-1.5,1.13-3.04v-12.4c0-.98.37-1.46.64-1.74.54-.55,1.33-.94,2.36-1.16.51-.11,1.07-.17,1.66-.17.72,0,1.51.08,2.34.25.36.08.73.12,1.08.12.26,0,.52-.02.77-.07.7-.13,1.32-.43,1.85-.9.58-.51.96-1.19,1.14-2.01.41-1.64-.26-3.17-1.84-4.22-1.23-.81-2.85-1.19-4.99-1.19h0Z"/>
    </g>
    <g>
      <path class="cls-5" d="m303.95,165.14c-.9,0-1.69-.32-2.3-.93s-.92-1.4-.92-2.3v-10.44c0-1.42-.25-2.57-.75-3.42-.49-.84-1.13-1.45-1.96-1.86-.85-.42-1.86-.63-2.99-.63-1.02,0-1.95.21-2.75.61-.81.41-1.43.93-1.9,1.59-.44.63-.66,1.34-.66,2.17v11.97c0,.89-.31,1.68-.89,2.28-.59.61-1.4.94-2.33.94s-1.69-.32-2.3-.93-.92-1.4-.92-2.3v-18.94c0-.93.32-1.74.94-2.33.6-.58,1.39-.89,2.29-.89s1.72.3,2.32.9c.24.24.44.52.58.82.3-.21.6-.4.92-.57,1.65-.9,3.52-1.36,5.56-1.36s4.06.46,5.75,1.38c1.72.93,3.09,2.31,4.07,4.09.97,1.76,1.47,3.93,1.47,6.46v10.44c0,.9-.32,1.69-.92,2.3-.61.63-1.41.95-2.31.95Z"/>
      <path class="cls-1" d="m295.88,140.6c1.95,0,3.7.42,5.25,1.25,1.54.84,2.76,2.06,3.65,3.67.89,1.61,1.34,3.6,1.34,5.94v10.44c0,.62-.2,1.14-.61,1.55-.41.41-.93.62-1.55.62s-1.14-.21-1.55-.62c-.41-.41-.62-.93-.62-1.55v-10.44c0-1.61-.3-2.93-.89-3.95-.6-1.02-1.4-1.78-2.4-2.27-1.01-.49-2.16-.74-3.46-.74-1.19,0-2.27.24-3.23.72-.96.48-1.73,1.13-2.29,1.93-.57.81-.85,1.73-.85,2.78v11.97c0,.62-.2,1.14-.59,1.55-.4.41-.92.62-1.57.62s-1.14-.21-1.55-.62c-.41-.41-.61-.93-.61-1.55v-18.94c0-.65.2-1.17.61-1.57.41-.4.93-.59,1.55-.59s1.17.2,1.57.59c.4.4.59.92.59,1.57v.49c.63-.63,1.34-1.19,2.16-1.64,1.5-.8,3.19-1.21,5.05-1.21m0-2.11c-2.22,0-4.26.5-6.07,1.49-.04.02-.08.05-.12.07-.04-.04-.08-.09-.13-.13-.8-.8-1.86-1.21-3.07-1.21s-2.22.41-3.02,1.19c-.82.8-1.26,1.86-1.26,3.09v18.94c0,1.19.43,2.24,1.23,3.04.81.81,1.86,1.24,3.05,1.24s2.29-.44,3.09-1.26c.78-.81,1.19-1.85,1.19-3.02v-11.97c0-.62.15-1.11.47-1.57.36-.52.86-.93,1.51-1.26.67-.33,1.41-.5,2.28-.5.97,0,1.82.18,2.53.53.63.31,1.12.78,1.51,1.44.4.68.6,1.65.6,2.88v10.44c0,1.18.43,2.24,1.23,3.04.81.81,1.86,1.24,3.04,1.24s2.24-.43,3.05-1.24c.81-.81,1.23-1.86,1.23-3.04v-10.44c0-2.7-.54-5.05-1.6-6.97-1.09-1.96-2.6-3.48-4.49-4.51-1.84-1.01-3.95-1.51-6.25-1.51h0Z"/>
    </g>
    <g>
      <path class="cls-5" d="m326.12,165.1c-.8,0-1.55-.3-2.17-.88-.63-.59-.97-1.4-.97-2.34v-15.5h-.77c-.87,0-1.6-.27-2.16-.79-.58-.54-.89-1.25-.89-2.05,0-.86.31-1.6.89-2.13.57-.52,1.3-.79,2.16-.79h.77c.04-2.07.49-3.91,1.33-5.47.9-1.67,2.17-2.99,3.78-3.92,1.6-.93,3.46-1.39,5.54-1.39.89,0,1.65.28,2.26.82.63.57.97,1.33.97,2.19s-.33,1.57-.95,2.15c-.61.57-1.37.86-2.27.86s-1.58.19-2.21.57-1.11.9-1.46,1.58c-.36.69-.54,1.54-.54,2.53v.09h3.27c.87,0,1.59.27,2.16.79.58.54.89,1.28.89,2.14,0,.8-.31,1.51-.89,2.05-.57.52-1.29.79-2.16.79h-3.27v15.5c0,.92-.31,1.73-.9,2.32-.61.57-1.42.88-2.41.88Z"/>
      <path class="cls-1" d="m333.63,130.88c.62,0,1.14.18,1.55.55.41.37.62.84.62,1.4s-.21,1-.62,1.38-.93.57-1.55.57c-1.05,0-1.97.24-2.76.72s-1.41,1.15-1.85,2-.66,1.85-.66,3.01v1.15h4.33c.59,0,1.08.17,1.44.51.37.34.55.79.55,1.36,0,.51-.18.93-.55,1.27-.37.34-.85.51-1.44.51h-4.33v16.56c0,.65-.2,1.17-.6,1.57-.4.4-.95.59-1.66.59-.54,0-1.02-.2-1.44-.59-.42-.4-.64-.92-.64-1.57v-16.56h-1.83c-.6,0-1.08-.17-1.45-.51-.37-.34-.55-.76-.55-1.27,0-.57.18-1.02.55-1.36s.85-.51,1.45-.51h1.83v-.72c0-2.04.4-3.81,1.21-5.31s1.93-2.67,3.38-3.5c1.45-.83,3.13-1.25,5.02-1.25m0-2.12c-2.26,0-4.31.52-6.07,1.54-1.78,1.03-3.19,2.49-4.18,4.33-.78,1.45-1.25,3.1-1.4,4.92-1.03.05-1.94.41-2.65,1.07-.81.74-1.23,1.75-1.23,2.91s.43,2.08,1.23,2.83c.69.64,1.58,1,2.59,1.06v14.45c0,1.24.45,2.32,1.31,3.12.81.76,1.81,1.16,2.89,1.16,1.6,0,2.6-.66,3.15-1.21.8-.8,1.22-1.86,1.22-3.07v-14.45h2.22c1.12,0,2.12-.37,2.88-1.07.81-.74,1.23-1.72,1.23-2.83s-.43-2.17-1.23-2.91c-.76-.7-1.75-1.07-2.88-1.07h-2.14c.07-.41.18-.76.34-1.07.26-.5.61-.88,1.07-1.16.46-.28,1-.41,1.66-.41,1.16,0,2.19-.39,2.99-1.14.84-.79,1.29-1.8,1.29-2.93s-.46-2.2-1.32-2.97c-.8-.72-1.83-1.1-2.97-1.1h0Z"/>
    </g>
    <g>
      <path class="cls-5" d="m347.82,165.27c-2.47,0-4.69-.55-6.6-1.65-1.92-1.1-3.44-2.63-4.53-4.56-1.09-1.92-1.65-4.15-1.65-6.61s.55-4.74,1.65-6.66c1.09-1.93,2.62-3.46,4.53-4.56,1.91-1.09,4.13-1.65,6.6-1.65s4.64.55,6.55,1.65c1.91,1.09,3.44,2.63,4.53,4.56,1.09,1.92,1.65,4.16,1.65,6.66s-.55,4.69-1.62,6.61c-1.08,1.93-2.6,3.47-4.52,4.56-1.91,1.09-4.13,1.65-6.59,1.65Zm0-19.75c-1.29,0-2.39.28-3.36.87-.98.59-1.72,1.38-2.29,2.42-.56,1.04-.85,2.26-.85,3.64s.28,2.59.85,3.61c.57,1.03,1.31,1.82,2.29,2.41.97.58,2.07.87,3.36.87s2.39-.28,3.36-.87c.97-.58,1.72-1.37,2.26-2.4.55-1.03.83-2.24.83-3.62s-.28-2.6-.83-3.65c-.55-1.04-1.29-1.83-2.26-2.41-.98-.58-2.08-.87-3.36-.87Z"/>
      <path class="cls-1" d="m347.82,140.64c2.26,0,4.27.5,6.03,1.51,1.75,1,3.13,2.39,4.14,4.16,1,1.77,1.51,3.81,1.51,6.14s-.49,4.32-1.49,6.09c-.99,1.77-2.36,3.16-4.12,4.16-1.75,1-3.78,1.51-6.07,1.51s-4.32-.5-6.07-1.51c-1.75-1-3.14-2.39-4.14-4.16-1.01-1.77-1.51-3.8-1.51-6.09s.5-4.37,1.51-6.14c1-1.77,2.38-3.16,4.14-4.16,1.75-1,3.77-1.51,6.07-1.51m0,19.75c1.47,0,2.77-.34,3.91-1.02,1.13-.68,2.02-1.61,2.65-2.8.64-1.19.96-2.56.96-4.12s-.32-2.94-.96-4.14c-.64-1.2-1.52-2.14-2.65-2.82-1.13-.68-2.43-1.02-3.91-1.02s-2.78.34-3.91,1.02c-1.13.68-2.02,1.62-2.67,2.82-.65,1.2-.98,2.58-.98,4.14s.32,2.93.98,4.12c.65,1.19,1.54,2.12,2.67,2.8s2.43,1.02,3.91,1.02m0-21.86c-2.66,0-5.05.6-7.12,1.79-2.08,1.19-3.74,2.86-4.93,4.95-1.18,2.08-1.78,4.5-1.78,7.18s.6,5.05,1.79,7.14,2.84,3.76,4.93,4.95c2.07,1.19,4.47,1.79,7.12,1.79s5.05-.6,7.12-1.79c2.08-1.19,3.74-2.86,4.91-4.96,1.17-2.08,1.76-4.48,1.76-7.13s-.6-5.1-1.78-7.18c-1.19-2.1-2.85-3.76-4.93-4.95-2.09-1.19-4.47-1.79-7.09-1.79h0Zm0,19.74c-1.09,0-2.01-.23-2.82-.72s-1.44-1.14-1.91-2.01c-.48-.88-.72-1.89-.72-3.1s.24-2.24.72-3.13c.47-.87,1.1-1.53,1.9-2.02.8-.48,1.73-.72,2.82-.72s2.01.23,2.82.72c.8.48,1.42,1.14,1.87,2,.48.9.71,1.93.71,3.15s-.23,2.24-.7,3.12c-.46.86-1.07,1.51-1.88,1.99-.8.49-1.72.72-2.81.72h0Z"/>
    </g>
    <g>
      <path class="cls-5" d="m367.01,165.1c-.96,0-1.74-.28-2.3-.83-.58-.56-.88-1.35-.88-2.35v-18.98c0-.97.29-1.74.86-2.32.57-.57,1.35-.86,2.32-.86s1.78.28,2.34.84c.27.27.48.59.62.97.36-.28.73-.52,1.12-.74,1.57-.88,3.31-1.32,5.19-1.32s3.36.33,4.38,1c1.64,1.08,1.58,2.42,1.4,3.12-.12.58-.4,1.08-.81,1.44-.38.34-.83.56-1.34.65-.19.03-.38.05-.58.05-.28,0-.57-.04-.87-.1-.88-.18-1.74-.27-2.54-.27-.66,0-1.29.06-1.88.19-1.23.27-2.2.75-2.89,1.45-.64.65-.95,1.46-.95,2.49v12.4c0,.96-.28,1.73-.83,2.3-.57.57-1.36.87-2.36.87Z"/>
      <path class="cls-1" d="m376.26,140.56c1.7,0,2.97.28,3.8.83.84.55,1.15,1.21.96,1.97-.08.4-.25.7-.49.91s-.52.35-.83.4c-.13.02-.25.03-.39.03-.2,0-.41-.03-.63-.08-.98-.2-1.91-.3-2.78-.3-.74,0-1.44.07-2.1.21-1.44.31-2.58.89-3.42,1.74-.83.85-1.25,1.92-1.25,3.23v12.4c0,.68-.18,1.2-.53,1.57-.35.37-.89.55-1.59.55s-1.2-.18-1.57-.53-.55-.88-.55-1.59v-18.98c0-.68.18-1.2.55-1.57.37-.37.89-.55,1.57-.55s1.24.18,1.59.53.53.88.53,1.59v.89c.7-.81,1.49-1.53,2.46-2.08,1.42-.77,2.97-1.17,4.67-1.17m0-2.11c-2.06,0-3.98.49-5.7,1.46-.09.05-.18.1-.27.16-.06-.07-.13-.14-.2-.21-.52-.52-1.49-1.15-3.08-1.15s-2.53.64-3.07,1.17c-.53.53-1.17,1.5-1.17,3.06v18.98c0,1.62.65,2.59,1.2,3.12.53.51,1.49,1.12,3.04,1.12s2.59-.65,3.11-1.2c.51-.53,1.12-1.49,1.12-3.04v-12.4c0-.74.21-1.3.65-1.74.54-.55,1.33-.94,2.36-1.16.51-.11,1.07-.17,1.66-.17.72,0,1.51.08,2.33.25.36.08.73.12,1.08.12.26,0,.52-.02.77-.07.69-.13,1.32-.43,1.85-.9.58-.51.96-1.19,1.15-2.01.4-1.64-.27-3.18-1.85-4.22-1.21-.79-2.84-1.17-4.98-1.17h0Z"/>
    </g>
    <g>
      <path class="cls-5" d="m398.47,165.1c-.9,0-1.7-.33-2.32-.95s-.95-1.42-.95-2.32v-28.75c0-.93.33-1.75.96-2.35.63-.61,1.4-.91,2.31-.91h10.15c2.08,0,3.95.42,5.56,1.24,1.62.83,2.92,2.01,3.85,3.5.94,1.5,1.42,3.23,1.42,5.15,0,1.59-.44,3.06-1.31,4.35-.45.67-.98,1.26-1.6,1.78,1.15.56,2.14,1.31,2.95,2.27,1.29,1.52,1.95,3.51,1.95,5.91,0,2.14-.52,4.07-1.54,5.73-1.02,1.66-2.45,2.98-4.25,3.93-1.79.94-3.85,1.42-6.14,1.42h-11.04Zm11.04-6.19c1.14,0,2.15-.2,3-.58.81-.37,1.43-.89,1.89-1.61.45-.7.68-1.61.68-2.7,0-1-.21-1.79-.65-2.4-.45-.64-1.07-1.11-1.88-1.44-.86-.36-1.88-.54-3.03-.54h-7.78v9.27h7.77Zm-.89-15.46c1.39,0,2.48-.32,3.33-.97.76-.59,1.13-1.49,1.13-2.77s-.37-2.17-1.13-2.74c-.84-.63-1.96-.95-3.33-.95h-6.88v7.44h6.88Z"/>
      <path class="cls-1" d="m408.62,130.88c1.92,0,3.61.37,5.07,1.12,1.46.75,2.6,1.79,3.44,3.12s1.25,2.86,1.25,4.59c0,1.39-.38,2.64-1.13,3.76s-1.78,2-3.08,2.65c1.87.45,3.37,1.34,4.5,2.67s1.7,3.07,1.7,5.22c0,1.95-.46,3.68-1.38,5.18s-2.2,2.68-3.84,3.55c-1.64.86-3.52,1.29-5.65,1.29h-11.04c-.62,0-1.15-.21-1.57-.64-.42-.42-.64-.95-.64-1.57v-28.75c0-.65.21-1.18.64-1.59.42-.41.95-.61,1.57-.61h10.16m-7.94,13.64h7.94c1.61,0,2.94-.4,3.97-1.19,1.03-.79,1.55-2,1.55-3.61s-.52-2.81-1.55-3.59-2.36-1.17-3.97-1.17h-7.94v9.56m0,15.45h8.83c1.3,0,2.45-.23,3.44-.68s1.77-1.12,2.33-2c.57-.88.85-1.97.85-3.27,0-1.22-.28-2.22-.85-3.01s-1.34-1.39-2.33-1.8-2.14-.62-3.44-.62h-8.83v11.38m7.94-31.2h-10.15c-1.17,0-2.22.42-3.04,1.21-.84.81-1.28,1.89-1.28,3.11v28.75c0,1.18.43,2.24,1.25,3.06.82.82,1.88,1.26,3.07,1.26h11.04c2.46,0,4.69-.52,6.63-1.54,1.97-1.04,3.54-2.49,4.66-4.31,1.12-1.83,1.69-3.95,1.69-6.29,0-2.66-.74-4.87-2.2-6.59-.59-.7-1.27-1.3-2.02-1.81.27-.31.52-.63.75-.97.98-1.47,1.48-3.13,1.48-4.93,0-2.12-.53-4.04-1.58-5.71-1.04-1.65-2.47-2.95-4.26-3.88-1.76-.9-3.79-1.36-6.04-1.36h0Zm-5.83,8.31h5.83c1.15,0,2.04.24,2.7.74.19.14.71.53.71,1.9,0,1.23-.41,1.69-.72,1.93-.66.5-1.54.75-2.68.75h-5.83v-5.32h-.01Zm0,13.63h6.72c1.02,0,1.9.15,2.63.46.62.26,1.09.61,1.42,1.08.3.42.46,1.02.46,1.79,0,.88-.17,1.6-.51,2.12-.35.54-.82.94-1.44,1.22-.71.33-1.57.49-2.56.49h-6.72v-7.16h0Z"/>
    </g>
    <g>
      <path class="cls-5" d="m436.38,165.27c-2.52,0-4.8-.55-6.77-1.64-1.99-1.09-3.57-2.62-4.69-4.55-1.12-1.93-1.69-4.16-1.69-6.63s.54-4.72,1.6-6.65c1.07-1.93,2.56-3.47,4.45-4.56,1.88-1.1,4.06-1.65,6.48-1.65s4.5.55,6.24,1.62c1.75,1.08,3.1,2.58,4.03,4.47.9,1.85,1.36,4,1.36,6.39,0,.82-.3,1.55-.88,2.1-.57.55-1.29.83-2.13.83h-14.76c.13.41.28.77.47,1.09.62,1.06,1.45,1.88,2.54,2.5,1.08.61,2.35.92,3.77.92.75,0,1.54-.14,2.35-.43.82-.29,1.47-.62,1.95-.97.61-.45,1.27-.68,1.98-.7h.01c.81,0,1.47.24,2,.7.71.63,1.09,1.35,1.13,2.15.03.6-.13,1.48-1.09,2.21-1.04.82-2.35,1.51-3.89,2.03-1.55.51-3.04.77-4.46.77Zm4.71-15.79c-.11-.41-.23-.77-.39-1.1-.46-.95-1.08-1.68-1.92-2.23-.82-.54-1.81-.8-3.03-.8-1.4,0-2.61.3-3.58.91-.98.6-1.7,1.41-2.21,2.47-.11.23-.21.48-.3.75h11.43Z"/>
      <path class="cls-1" d="m435.75,140.64c2.21,0,4.11.49,5.69,1.46,1.59.98,2.8,2.32,3.63,4.03.83,1.71,1.25,3.69,1.25,5.92,0,.54-.18.98-.55,1.34-.37.35-.84.53-1.4.53h-16.08c.16.96.41,1.87.88,2.67.71,1.22,1.68,2.18,2.93,2.89s2.67,1.06,4.29,1.06c.88,0,1.78-.16,2.7-.49s1.66-.7,2.23-1.13c.42-.31.88-.47,1.38-.49h.06c.47,0,.88.15,1.23.45.48.42.74.89.76,1.4.03.51-.2.95-.68,1.32-.96.77-2.16,1.39-3.59,1.87s-2.8.72-4.1.72c-2.35,0-4.44-.5-6.26-1.51-1.83-1-3.26-2.39-4.29-4.16s-1.55-3.8-1.55-6.09.49-4.37,1.47-6.14,2.33-3.16,4.06-4.16c1.72-.98,3.7-1.49,5.94-1.49m-7.45,9.9h14.06c-.13-.94-.33-1.82-.71-2.61-.54-1.12-1.3-2-2.29-2.65-.99-.65-2.19-.98-3.61-.98-1.61,0-2.99.36-4.14,1.06-1.14.71-2.02,1.68-2.61,2.91-.34.7-.56,1.46-.7,2.27m7.45-12.01c-2.6,0-4.96.6-7.01,1.79-2.05,1.19-3.68,2.86-4.84,4.97-1.15,2.08-1.73,4.49-1.73,7.16s.62,5.07,1.84,7.16c1.22,2.1,2.94,3.76,5.1,4.95,2.13,1.17,4.58,1.77,7.28,1.77,1.52,0,3.13-.28,4.77-.83,1.66-.56,3.08-1.31,4.23-2.22,1.01-.77,1.54-1.87,1.47-3.09-.04-.75-.33-1.86-1.48-2.87-.76-.65-1.66-.97-2.63-.97h-.12c-.94.03-1.8.33-2.57.9-.41.31-.97.59-1.69.84-.69.24-1.36.37-1.99.37-1.25,0-2.31-.26-3.24-.79-.74-.42-1.34-.95-1.82-1.61h13.05c1.11,0,2.1-.39,2.86-1.12.79-.76,1.2-1.75,1.2-2.86,0-2.55-.49-4.85-1.47-6.85-1.01-2.07-2.5-3.72-4.42-4.91-1.91-1.19-4.2-1.79-6.79-1.79h0Zm-4.4,9.89c.37-.51.82-.93,1.37-1.27.81-.5,1.81-.75,3.03-.75,1,0,1.8.21,2.45.63.54.36.98.81,1.32,1.38h-8.17Z"/>
    </g>
    <g>
      <path class="cls-5" d="m459.61,165.27c-2.26,0-4.32-.58-6.12-1.71-1.79-1.12-3.22-2.67-4.25-4.6-1.03-1.91-1.55-4.1-1.55-6.51s.57-4.62,1.69-6.56c1.12-1.93,2.66-3.48,4.58-4.61,1.92-1.12,4.11-1.69,6.5-1.69s4.57.57,6.48,1.69,3.44,2.67,4.56,4.61,1.69,4.15,1.69,6.56v9.47c0,.9-.32,1.69-.93,2.3s-1.4.93-2.3.93-1.69-.32-2.3-.93c-.41-.41-.69-.91-.83-1.47-.36.3-.73.57-1.11.81-1.79,1.13-3.85,1.71-6.11,1.71Zm.85-19.75c-1.23,0-2.31.29-3.3.89-1,.6-1.76,1.4-2.34,2.45-.57,1.04-.87,2.25-.87,3.59s.29,2.5.87,3.54c.57,1.04,1.36,1.86,2.34,2.45.99.6,2.06.89,3.3.89s2.34-.29,3.31-.88c.98-.6,1.73-1.4,2.3-2.45.56-1.04.85-2.23.85-3.55s-.29-2.55-.85-3.6c-.57-1.05-1.32-1.85-2.3-2.45-.97-.59-2.05-.88-3.31-.88Z"/>
      <path class="cls-1" d="m460.46,140.64c2.21,0,4.19.52,5.94,1.55s3.15,2.44,4.18,4.23c1.03,1.78,1.55,3.79,1.55,6.03v9.47c0,.62-.21,1.14-.62,1.55s-.93.62-1.55.62-1.14-.21-1.55-.62c-.41-.41-.62-.93-.62-1.55v-1.69c-.76.94-1.6,1.78-2.63,2.43-1.64,1.03-3.5,1.55-5.56,1.55s-3.92-.52-5.56-1.55c-1.64-1.03-2.94-2.43-3.89-4.2s-1.42-3.77-1.42-6.01.52-4.25,1.55-6.03,2.44-3.19,4.2-4.23c1.78-1.03,3.77-1.55,5.98-1.55m0,19.75c1.44,0,2.73-.35,3.86-1.04,1.13-.69,2.02-1.64,2.67-2.84.65-1.2.98-2.55.98-4.05s-.33-2.89-.98-4.1c-.65-1.2-1.54-2.15-2.67-2.84s-2.42-1.04-3.86-1.04-2.7.35-3.84,1.04-2.05,1.64-2.72,2.84-1,2.57-1,4.1.33,2.85,1,4.05c.66,1.2,1.57,2.15,2.72,2.84,1.14.69,2.43,1.04,3.84,1.04m0-21.86c-2.58,0-4.94.62-7.03,1.84-2.08,1.22-3.75,2.9-4.97,4.99-1.22,2.1-1.83,4.49-1.83,7.09s.56,4.94,1.67,7.01c1.12,2.09,2.67,3.77,4.62,4.99,1.97,1.24,4.22,1.87,6.69,1.87s4.71-.63,6.69-1.88c.04-.03.09-.05.13-.08.15.21.31.41.5.6.81.81,1.86,1.24,3.04,1.24s2.24-.43,3.04-1.24c.81-.81,1.24-1.86,1.24-3.04v-9.47c0-2.6-.62-4.99-1.84-7.09-1.21-2.09-2.87-3.77-4.94-4.99-2.07-1.22-4.43-1.84-7.01-1.84h0Zm0,19.74c-1.03,0-1.93-.24-2.75-.73-.83-.5-1.48-1.18-1.96-2.06-.49-.89-.73-1.88-.73-3.03s.24-2.18.73-3.08c.49-.88,1.13-1.56,1.96-2.06.82-.49,1.72-.73,2.75-.73s1.96.24,2.76.73c.82.5,1.45,1.17,1.92,2.05.49.9.72,1.91.72,3.09s-.24,2.15-.72,3.05c-.48.88-1.1,1.55-1.92,2.05-.8.49-1.7.72-2.76.72h0Z"/>
    </g>
    <g>
      <path class="cls-5" d="m487.3,165.31c-2.12,0-4.06-.46-5.75-1.38-1.72-.93-3.09-2.3-4.07-4.09-.98-1.76-1.47-3.94-1.47-6.46v-10.45c0-.9.32-1.69.92-2.3.61-.61,1.4-.93,2.3-.93s1.69.32,2.3.92c.61.61.93,1.41.93,2.3v10.45c0,1.39.25,2.53.75,3.4.49.85,1.13,1.47,1.97,1.87.87.42,1.87.63,2.98.63,1.05,0,1.98-.2,2.77-.61.8-.4,1.41-.93,1.88-1.61.45-.65.66-1.35.66-2.16v-11.97c0-.93.32-1.74.94-2.33.61-.59,1.38-.89,2.28-.89s1.72.3,2.32.9c.6.6.9,1.38.9,2.32v18.94c0,.89-.31,1.68-.89,2.29-.59.61-1.4.94-2.33.94s-1.69-.32-2.3-.93c-.24-.24-.43-.51-.58-.8-.3.21-.6.4-.92.58-1.65.91-3.53,1.37-5.59,1.37Z"/>
      <path class="cls-1" d="m496.68,140.77c.65,0,1.17.2,1.57.59.4.4.59.92.59,1.57v18.94c0,.62-.2,1.14-.59,1.55-.4.41-.92.62-1.57.62s-1.14-.2-1.55-.62c-.41-.41-.62-.93-.62-1.55v-.49c-.63.63-1.33,1.19-2.14,1.64-1.49.82-3.18,1.23-5.07,1.23s-3.7-.42-5.24-1.25c-1.54-.83-2.76-2.06-3.65-3.67-.89-1.61-1.34-3.6-1.34-5.94v-10.45c0-.62.21-1.14.62-1.55s.93-.61,1.55-.61,1.14.21,1.55.61c.41.41.61.93.61,1.55v10.45c0,1.58.3,2.89.89,3.93.59,1.03,1.4,1.8,2.42,2.29,1.02.49,2.17.74,3.44.74s2.3-.24,3.25-.72,1.71-1.13,2.27-1.95c.57-.82.85-1.74.85-2.76v-11.97c0-.65.21-1.17.62-1.57.4-.41.92-.61,1.54-.61m0-2.11c-1.17,0-2.21.41-3.02,1.19-.82.8-1.26,1.87-1.26,3.09v11.97c0,.59-.15,1.09-.48,1.56-.37.53-.85.95-1.49,1.27-.65.33-1.4.49-2.29.49-.96,0-1.78-.17-2.52-.53-.63-.31-1.13-.78-1.51-1.44-.41-.71-.61-1.67-.61-2.87v-10.45c0-1.18-.42-2.23-1.23-3.04-.82-.81-1.87-1.24-3.05-1.24s-2.23.43-3.04,1.23c-.81.81-1.24,1.87-1.24,3.05v10.45c0,2.7.54,5.04,1.6,6.97,1.08,1.97,2.6,3.48,4.5,4.51,1.84,1,3.95,1.51,6.25,1.51s4.3-.5,6.1-1.5c.04-.02.08-.05.13-.07.04.04.08.08.12.12.8.8,1.86,1.23,3.04,1.23s2.3-.44,3.09-1.26c.77-.8,1.19-1.84,1.19-3.02v-18.94c0-1.21-.42-2.27-1.21-3.07-.8-.79-1.86-1.21-3.07-1.21h0Z"/>
    </g>
    <g>
      <path class="cls-5" d="m513.88,165.1c-1.61,0-3.09-.42-4.39-1.25-1.29-.82-2.31-1.95-3.04-3.35-.73-1.39-1.1-2.97-1.1-4.69v-9.43h-.9c-.87,0-1.59-.27-2.16-.79-.58-.54-.89-1.25-.89-2.05,0-.86.31-1.59.89-2.13.57-.53,1.3-.79,2.16-.79h.9v-5.06c0-.9.31-1.68.9-2.27.59-.59,1.38-.91,2.28-.91s1.68.31,2.28.9c.59.59.91,1.38.91,2.28v5.06h2.55c.86,0,1.59.27,2.16.79.58.54.89,1.28.89,2.14,0,.8-.31,1.51-.89,2.05-.57.53-1.29.79-2.16.79h-2.55v9.43c0,.89.23,1.6.7,2.18.42.52.89.76,1.47.76h1.44c.81,0,1.53.33,2.08.95.53.6.8,1.35.8,2.23,0,.93-.37,1.74-1.07,2.34-.66.56-1.5.85-2.49.85h-.77v-.03Z"/>
      <path class="cls-1" d="m508.53,133.43c.62,0,1.13.2,1.53.6.4.4.6.91.6,1.53v6.11h3.61c.59,0,1.07.17,1.44.51s.55.79.55,1.36c0,.51-.19.93-.55,1.27-.37.34-.85.51-1.44.51h-3.61v10.49c0,1.13.31,2.08.93,2.85.62.76,1.39,1.15,2.29,1.15h1.44c.51,0,.94.2,1.3.59.35.4.53.91.53,1.53s-.23,1.13-.7,1.53c-.47.4-1.07.59-1.8.59h-.77c-1.42,0-2.69-.36-3.82-1.08s-2.02-1.71-2.67-2.95c-.65-1.25-.98-2.65-.98-4.2v-10.49h-1.95c-.59,0-1.08-.17-1.44-.51-.37-.34-.55-.76-.55-1.27,0-.57.18-1.02.55-1.36s.85-.51,1.44-.51h1.95v-6.11c0-.62.2-1.13.59-1.53.39-.42.9-.61,1.53-.61m0-2.12c-1.18,0-2.23.42-3.02,1.22-.79.79-1.21,1.84-1.21,3.02v4c-1.06.03-2,.4-2.72,1.07-.81.75-1.23,1.75-1.23,2.91,0,1.1.42,2.08,1.23,2.82.72.67,1.66,1.04,2.72,1.07v8.38c0,1.89.41,3.64,1.22,5.18.82,1.57,1.97,2.83,3.41,3.75,1.47.94,3.14,1.41,4.96,1.41h.77c1.25,0,2.31-.37,3.17-1.1.95-.8,1.45-1.89,1.45-3.14,0-1.14-.37-2.15-1.06-2.93-.77-.85-1.76-1.3-2.87-1.3h-1.44c-.19,0-.38-.03-.65-.37-.2-.24-.46-.66-.46-1.51v-8.37h1.5c1.12,0,2.12-.37,2.88-1.07.81-.75,1.23-1.72,1.23-2.83s-.42-2.16-1.23-2.91c-.76-.7-1.76-1.07-2.88-1.07h-1.5v-4c0-1.18-.42-2.23-1.21-3.02-.84-.79-1.88-1.21-3.06-1.21h0Z"/>
    </g>
    <g>
      <path class="cls-5" d="m525.55,175.29c-.43,0-.9-.11-1.44-.34-.91-.41-1.5-.99-1.77-1.71-.26-.72-.19-1.52.21-2.38l4.02-9.08-9.3-17.67c-.43-.82-.48-1.67-.14-2.46.32-.74.9-1.31,1.68-1.64.43-.18.86-.27,1.28-.27.35,0,.71.06,1.04.19.74.28,1.31.83,1.68,1.61l6.77,13.44,5.92-13.37c.74-1.56,1.84-1.88,2.63-1.88.45,0,.92.1,1.42.31.91.39,1.52.95,1.8,1.67.28.72.22,1.53-.19,2.42l-12.99,29.21c-.65,1.69-1.92,1.95-2.62,1.95Z"/>
      <path class="cls-1" d="m520.09,140.8c.23,0,.45.04.66.12.48.19.85.55,1.11,1.08l7.78,15.46,6.83-15.41c.4-.83.95-1.25,1.67-1.25.31,0,.64.08,1.01.23,1.27.54,1.63,1.43,1.06,2.67l-12.99,29.21c-.34.88-.89,1.32-1.66,1.32-.28,0-.62-.08-1.02-.25-1.25-.57-1.59-1.46-1.02-2.67l4.23-9.56-9.54-18.12c-.28-.54-.32-1.05-.11-1.55.21-.49.59-.86,1.12-1.08.3-.14.59-.2.87-.2m0-2.12h0c-.56,0-1.13.12-1.68.35-1.05.44-1.82,1.2-2.25,2.2-.46,1.08-.4,2.28.18,3.37l9.06,17.22-3.82,8.63c-.64,1.37-.48,2.48-.22,3.16.25.69.86,1.64,2.3,2.3.7.3,1.31.44,1.89.44,1.63,0,2.94-.95,3.61-2.61l12.97-29.17c.65-1.42.47-2.54.2-3.22-.27-.69-.9-1.64-2.37-2.26-.63-.26-1.24-.4-1.83-.4-.9,0-2.56.32-3.58,2.45-.01.02-.02.04-.02.05l-5.01,11.33-5.77-11.46c-.47-.99-1.25-1.73-2.24-2.11-.46-.18-.94-.27-1.42-.27h0Z"/>
    </g>
  </g>
</svg>